<mxfile host="app.diagrams.net" modified="2022-11-26T08:26:50.198Z" agent="5.0 (X11; Linux x86_64) AppleWebKit/537.36 (KHTML, like Gecko) Chrome/107.0.0.0 Safari/537.36" etag="Csz3sRVb3oaukh04OC1j" version="20.6.0" type="github">
  <diagram id="kix0m2wkywLuxFLJuS8X" name="Page-1">
    <mxGraphModel dx="1521" dy="394" grid="1" gridSize="10" guides="1" tooltips="1" connect="1" arrows="1" fold="1" page="1" pageScale="1" pageWidth="827" pageHeight="1169" math="0" shadow="0">
      <root>
        <mxCell id="0" />
        <mxCell id="1" parent="0" />
        <mxCell id="xp2GCXYfNlZoxfFlJptV-4" value="" style="rounded=0;whiteSpace=wrap;html=1;" vertex="1" parent="1">
          <mxGeometry x="-567" y="310" width="120" height="60" as="geometry" />
        </mxCell>
        <mxCell id="VRkxCYE8c5NHndmHMXFx-4" value="" style="strokeWidth=2;html=1;shape=mxgraph.flowchart.terminator;whiteSpace=wrap;" parent="1" vertex="1">
          <mxGeometry x="-559" y="90" width="100" height="50" as="geometry" />
        </mxCell>
        <mxCell id="VRkxCYE8c5NHndmHMXFx-5" value="" style="shape=parallelogram;html=1;strokeWidth=2;perimeter=parallelogramPerimeter;whiteSpace=wrap;rounded=1;arcSize=12;size=0.23;" parent="1" vertex="1">
          <mxGeometry x="-573" y="200.5" width="126" height="45" as="geometry" />
        </mxCell>
        <mxCell id="VRkxCYE8c5NHndmHMXFx-8" value="" style="strokeWidth=2;html=1;shape=mxgraph.flowchart.decision;whiteSpace=wrap;" parent="1" vertex="1">
          <mxGeometry x="-560" y="435" width="100" height="100" as="geometry" />
        </mxCell>
        <mxCell id="VRkxCYE8c5NHndmHMXFx-13" value="START" style="text;strokeColor=none;fillColor=none;align=center;verticalAlign=middle;spacingLeft=4;spacingRight=4;overflow=hidden;points=[[0,0.5],[1,0.5]];portConstraint=eastwest;rotatable=0;whiteSpace=wrap;html=1;" parent="1" vertex="1">
          <mxGeometry x="-549" y="100" width="80" height="30" as="geometry" />
        </mxCell>
        <mxCell id="VRkxCYE8c5NHndmHMXFx-14" value="Read number n,&lt;br&gt;Sum = 0" style="text;strokeColor=none;fillColor=none;align=center;verticalAlign=middle;spacingLeft=4;spacingRight=4;overflow=hidden;points=[[0,0.5],[1,0.5]];portConstraint=eastwest;rotatable=0;whiteSpace=wrap;html=1;" parent="1" vertex="1">
          <mxGeometry x="-555" y="205.5" width="99" height="34.5" as="geometry" />
        </mxCell>
        <mxCell id="VRkxCYE8c5NHndmHMXFx-15" value="&amp;nbsp;i = 1" style="text;strokeColor=none;fillColor=none;align=center;verticalAlign=middle;spacingLeft=4;spacingRight=4;overflow=hidden;points=[[0,0.5],[1,0.5]];portConstraint=eastwest;rotatable=0;whiteSpace=wrap;html=1;" parent="1" vertex="1">
          <mxGeometry x="-549" y="325" width="80" height="30" as="geometry" />
        </mxCell>
        <mxCell id="VRkxCYE8c5NHndmHMXFx-16" value="Is i&amp;nbsp;&amp;lt;= n" style="text;strokeColor=none;fillColor=none;align=center;verticalAlign=middle;spacingLeft=4;spacingRight=4;overflow=hidden;points=[[0,0.5],[1,0.5]];portConstraint=eastwest;rotatable=0;whiteSpace=wrap;html=1;" parent="1" vertex="1">
          <mxGeometry x="-550" y="456" width="81" height="60" as="geometry" />
        </mxCell>
        <mxCell id="VRkxCYE8c5NHndmHMXFx-17" value="True" style="text;strokeColor=none;fillColor=none;align=center;verticalAlign=middle;spacingLeft=4;spacingRight=4;overflow=hidden;points=[[0,0.5],[1,0.5]];portConstraint=eastwest;rotatable=0;whiteSpace=wrap;html=1;" parent="1" vertex="1">
          <mxGeometry x="-530" y="555" width="80" height="30" as="geometry" />
        </mxCell>
        <mxCell id="VRkxCYE8c5NHndmHMXFx-21" value="False" style="text;strokeColor=none;fillColor=none;align=center;verticalAlign=middle;spacingLeft=4;spacingRight=4;overflow=hidden;points=[[0,0.5],[1,0.5]];portConstraint=eastwest;rotatable=0;whiteSpace=wrap;html=1;" parent="1" vertex="1">
          <mxGeometry x="-430" y="456" width="80" height="30" as="geometry" />
        </mxCell>
        <mxCell id="xp2GCXYfNlZoxfFlJptV-1" value="" style="endArrow=classic;html=1;rounded=0;" edge="1" parent="1">
          <mxGeometry width="50" height="50" relative="1" as="geometry">
            <mxPoint x="-509.5" y="140" as="sourcePoint" />
            <mxPoint x="-509.5" y="200" as="targetPoint" />
          </mxGeometry>
        </mxCell>
        <mxCell id="xp2GCXYfNlZoxfFlJptV-3" value="" style="endArrow=classic;html=1;rounded=0;" edge="1" parent="1">
          <mxGeometry width="50" height="50" relative="1" as="geometry">
            <mxPoint x="-509.4" y="245.5" as="sourcePoint" />
            <mxPoint x="-509.4" y="305.5" as="targetPoint" />
          </mxGeometry>
        </mxCell>
        <mxCell id="xp2GCXYfNlZoxfFlJptV-5" value="" style="endArrow=classic;html=1;rounded=0;" edge="1" parent="1">
          <mxGeometry width="50" height="50" relative="1" as="geometry">
            <mxPoint x="-509.4" y="370" as="sourcePoint" />
            <mxPoint x="-509.4" y="430" as="targetPoint" />
          </mxGeometry>
        </mxCell>
        <mxCell id="xp2GCXYfNlZoxfFlJptV-6" value="" style="endArrow=classic;html=1;rounded=0;" edge="1" parent="1">
          <mxGeometry width="50" height="50" relative="1" as="geometry">
            <mxPoint x="-510.4" y="535" as="sourcePoint" />
            <mxPoint x="-510.4" y="595" as="targetPoint" />
          </mxGeometry>
        </mxCell>
        <mxCell id="xp2GCXYfNlZoxfFlJptV-7" value="" style="rounded=0;whiteSpace=wrap;html=1;" vertex="1" parent="1">
          <mxGeometry x="-567" y="600" width="120" height="60" as="geometry" />
        </mxCell>
        <mxCell id="xp2GCXYfNlZoxfFlJptV-10" value="" style="rounded=0;whiteSpace=wrap;html=1;" vertex="1" parent="1">
          <mxGeometry x="-570" y="730" width="120" height="60" as="geometry" />
        </mxCell>
        <mxCell id="xp2GCXYfNlZoxfFlJptV-11" value="" style="shape=parallelogram;html=1;strokeWidth=2;perimeter=parallelogramPerimeter;whiteSpace=wrap;rounded=1;arcSize=12;size=0.23;" vertex="1" parent="1">
          <mxGeometry x="-573" y="860" width="133" height="60" as="geometry" />
        </mxCell>
        <mxCell id="xp2GCXYfNlZoxfFlJptV-13" value="" style="strokeWidth=2;html=1;shape=mxgraph.flowchart.terminator;whiteSpace=wrap;" vertex="1" parent="1">
          <mxGeometry x="-557" y="990" width="100" height="50" as="geometry" />
        </mxCell>
        <mxCell id="xp2GCXYfNlZoxfFlJptV-15" value="" style="endArrow=classic;html=1;rounded=0;entryX=0;entryY=0.5;entryDx=0;entryDy=0;" edge="1" parent="1" target="xp2GCXYfNlZoxfFlJptV-10">
          <mxGeometry width="50" height="50" relative="1" as="geometry">
            <mxPoint x="-561" y="486" as="sourcePoint" />
            <mxPoint x="-700" y="770" as="targetPoint" />
            <Array as="points">
              <mxPoint x="-650" y="486" />
              <mxPoint x="-650" y="760" />
            </Array>
          </mxGeometry>
        </mxCell>
        <mxCell id="xp2GCXYfNlZoxfFlJptV-16" value="" style="endArrow=classic;html=1;rounded=0;" edge="1" parent="1">
          <mxGeometry width="50" height="50" relative="1" as="geometry">
            <mxPoint x="-443" y="485" as="sourcePoint" />
            <mxPoint x="-470" y="830" as="targetPoint" />
            <Array as="points">
              <mxPoint x="-333" y="485" />
              <mxPoint x="-333" y="830" />
            </Array>
          </mxGeometry>
        </mxCell>
        <mxCell id="xp2GCXYfNlZoxfFlJptV-17" value="" style="endArrow=classic;html=1;rounded=0;exitX=0.463;exitY=1.007;exitDx=0;exitDy=0;exitPerimeter=0;" edge="1" parent="1" source="xp2GCXYfNlZoxfFlJptV-7">
          <mxGeometry width="50" height="50" relative="1" as="geometry">
            <mxPoint x="-510.4" y="670" as="sourcePoint" />
            <mxPoint x="-510.4" y="730" as="targetPoint" />
          </mxGeometry>
        </mxCell>
        <mxCell id="xp2GCXYfNlZoxfFlJptV-18" value="" style="endArrow=classic;html=1;rounded=0;exitX=0.463;exitY=1.007;exitDx=0;exitDy=0;exitPerimeter=0;" edge="1" parent="1">
          <mxGeometry width="50" height="50" relative="1" as="geometry">
            <mxPoint x="-507.0199999999999" y="790.0000000000001" as="sourcePoint" />
            <mxPoint x="-505.97999999999996" y="859.58" as="targetPoint" />
          </mxGeometry>
        </mxCell>
        <mxCell id="xp2GCXYfNlZoxfFlJptV-19" value="" style="endArrow=classic;html=1;rounded=0;exitX=0.463;exitY=1.007;exitDx=0;exitDy=0;exitPerimeter=0;" edge="1" parent="1">
          <mxGeometry width="50" height="50" relative="1" as="geometry">
            <mxPoint x="-507.0200000000001" y="920" as="sourcePoint" />
            <mxPoint x="-505.9799999999999" y="989.5799999999999" as="targetPoint" />
          </mxGeometry>
        </mxCell>
        <mxCell id="VRkxCYE8c5NHndmHMXFx-22" value="Sum =&amp;nbsp;Sum + (i * i)" style="text;strokeColor=none;fillColor=none;align=center;verticalAlign=middle;spacingLeft=4;spacingRight=4;overflow=hidden;points=[[0,0.5],[1,0.5]];portConstraint=eastwest;rotatable=0;whiteSpace=wrap;html=1;" parent="1" vertex="1">
          <mxGeometry x="-582.5" y="615" width="147" height="30" as="geometry" />
        </mxCell>
        <mxCell id="VRkxCYE8c5NHndmHMXFx-18" value="Print Sum" style="text;strokeColor=none;fillColor=none;align=center;verticalAlign=middle;spacingLeft=4;spacingRight=4;overflow=hidden;points=[[0,0.5],[1,0.5]];portConstraint=eastwest;rotatable=0;whiteSpace=wrap;html=1;" parent="1" vertex="1">
          <mxGeometry x="-547" y="875" width="80" height="30" as="geometry" />
        </mxCell>
        <mxCell id="VRkxCYE8c5NHndmHMXFx-19" value="i = i + 1" style="text;strokeColor=none;fillColor=none;align=center;verticalAlign=middle;spacingLeft=4;spacingRight=4;overflow=hidden;points=[[0,0.5],[1,0.5]];portConstraint=eastwest;rotatable=0;whiteSpace=wrap;html=1;" parent="1" vertex="1">
          <mxGeometry x="-557" y="742" width="80" height="30" as="geometry" />
        </mxCell>
        <mxCell id="xp2GCXYfNlZoxfFlJptV-20" value="STOP" style="text;strokeColor=none;fillColor=none;align=center;verticalAlign=middle;spacingLeft=4;spacingRight=4;overflow=hidden;points=[[0,0.5],[1,0.5]];portConstraint=eastwest;rotatable=0;whiteSpace=wrap;html=1;" vertex="1" parent="1">
          <mxGeometry x="-550" y="1000" width="80" height="30" as="geometry" />
        </mxCell>
      </root>
    </mxGraphModel>
  </diagram>
</mxfile>
